<svg xmlns="http://www.w3.org/2000/svg" viewBox="0 0 503.33 301.71"><path style="stroke:#4d4d4d;fill:#b2b2b2" transform="rotate(-143.728 318.348 35.46)" d="M303.5 20.962h29.667v29H303.5z"/><path style="fill:#c7daec" d="M278.35 65.448a2.998 2.998 0 0 0 .644 4.193L297 82.854a2.999 2.999 0 0 0 3.549-4.837l-18.01-13.213a2.998 2.998 0 0 0-4.193.644zm6.31-8.601a2.998 2.998 0 0 0 .645 4.193l18.005 13.213a3 3 0 1 0 3.549-4.837l-18-13.213a3 3 0 0 0-4.193.644zm6.51-8.869a3 3 0 0 0 .643 4.194l18.006 13.212a3 3 0 1 0 3.55-4.838l-18.01-13.212a3 3 0 0 0-4.193.644z"/><path style="fill:#5480aa" d="M258.58 115.68a19.894 19.894 0 0 1-5.885-6.885l-.576.892c-29.453 45.464-34.585 84.333-31.69 111.75 2.854 27.439 13.348 43.242 13.976 44.182l5.601 8.282 16.566-11.205-5.591-8.266c-.492-.756-8.958-14.229-10.865-37.254-1.869-23.045 2.489-55.837 28.8-96.634l.648-1.005a19.902 19.902 0 0 1-10.984-3.857zm63.68-59.358-.537-.395-23.918-17.551-1.921-1.409c-1.611-1.183-4.05-.599-5.442 1.298l-34.235 46.489c-4.66 6.351-4.999 14.528-1.593 21.072a19.894 19.894 0 0 0 5.885 6.885 19.912 19.912 0 0 0 10.985 3.858c6.433.267 12.876-2.569 16.972-8.15l34.199-46.516c1.391-1.897 1.216-4.399-.395-5.581zm-21.07 25.887a2.998 2.998 0 0 1-4.192.645l-18.01-13.213a2.998 2.998 0 0 1-.644-4.193 2.998 2.998 0 0 1 4.193-.644l18.006 13.213a2.997 2.997 0 0 1 .643 4.192zm6.312-8.6a2.998 2.998 0 0 1-4.193.644l-18.01-13.213a3 3 0 0 1 3.548-4.838l18.006 13.213a3 3 0 0 1 .644 4.194zm6.509-8.867a3 3 0 0 1-4.195.643l-18.01-13.213a3 3 0 0 1 3.55-4.838l18.006 13.212a3.004 3.004 0 0 1 .645 4.196zM195.96 282.55c-9.242-42.594-30.938-74.745-50.266-96.234-19.34-21.495-35.642-31.906-35.642-31.906a11.922 11.922 0 0 1-1.683 4.858 11.925 11.925 0 0 1-3.541 3.672s65.026 46.007 81.358 121.73l1.06 4.888 9.773-2.12-1.059-4.888zM45.53 95.59l29.682 18.248a2.33 2.33 0 0 0 3.203-.764l1.477-2.403 15.546 9.56-.321.521a.905.905 0 0 0 .296 1.244l29.623 18.215a.904.904 0 0 0 1.244-.296l3.592-5.842a.903.903 0 0 0-.297-1.243l-29.61-18.22a.905.905 0 0 0-1.244.296l-.129.209-15.546-9.559 1.477-2.402a2.328 2.328 0 0 0-.764-3.203l-29.68-18.258a2.329 2.329 0 0 0-3.203.764l-6.097 9.916a2.33 2.33 0 0 0 .764 3.203zm53.273 87.288-29.623-18.22a.903.903 0 0 0-1.243.296l-.129.209-15.546-9.559 1.478-2.402a2.33 2.33 0 0 0-.764-3.203l-29.681-18.25a2.329 2.329 0 0 0-3.203.764l-6.097 9.916a2.328 2.328 0 0 0 .764 3.202l29.681 18.252a2.33 2.33 0 0 0 3.203-.764l1.478-2.402 15.546 9.559-.321.521a.905.905 0 0 0 .297 1.244l29.623 18.216a.906.906 0 0 0 1.245-.297l3.592-5.842a.909.909 0 0 0-.3-1.244zm-75.01-51.937 39.904 24.537a2.33 2.33 0 0 0 3.203-.764l18.775-30.533a2.329 2.329 0 0 0-.764-3.203L45.006 96.431a2.329 2.329 0 0 0-3.203.764l-18.774 30.533a2.33 2.33 0 0 0 .764 3.203zm40.243-16.592a2.999 2.999 0 0 1 .984 4.126l-12.396 20.16a3 3 0 1 1-5.111-3.143l12.396-20.16a2.997 2.997 0 0 1 4.127-.983zm-8.485-5.218a3 3 0 0 1 .985 4.127l-12.396 20.16a3 3 0 1 1-5.112-3.143l12.396-20.16a3.002 3.002 0 0 1 4.127-.984zM30.546 125.06l12.396-20.16a3 3 0 1 1 5.111 3.143l-12.396 20.16a3 3 0 1 1-5.111-3.143zm77.522 28.036c.537-4.502-1.503-9.117-5.62-11.648l-18.741-11.524-12.57 20.444 18.74 11.523c4.129 2.54 9.187 2.269 12.967-.265a11.948 11.948 0 0 0 3.541-3.672 11.922 11.922 0 0 0 1.683-4.858z"/><path style="fill:#c7daec" d="m35.655 128.2 12.396-20.16a3.001 3.001 0 0 0-5.111-3.143l-12.396 20.16a3 3 0 1 0 5.111 3.143zm15.768-18.088-12.396 20.16a3 3 0 1 0 5.112 3.143l12.396-20.16a3 3 0 0 0-5.112-3.143zm8.483 5.216-12.396 20.16a3 3 0 1 0 5.111 3.143l12.396-20.16a3 3 0 0 0-5.111-3.143z"/><path style="stroke:#4d4d4d;fill:#b2b2b2" d="m24.009 125.35 16.936-27.543-9.37-5.762-16.937 27.543 9.371 5.762zm7.409-45.14 15.12 9.297 2.444-3.976-15.12-9.297-2.444 3.976zm-15.609 59.272 2.444-3.976-15.12-9.297-2.445 3.976 15.121 9.297z"/><path style="fill:#cfcfcf" d="M414.97 139.72c-1.877-2.08-4.359-4.263-7.33-6.156-2.972-1.893-5.986-3.241-8.653-4.081-4.348-1.37-7.767-1.384-8.539-.172l-98.353 154.36 28.309 18.038 98.354-154.36c.715-1.124-.729-4.238-3.788-7.628z"/><path style="fill:#e3851b" d="M431.37 102.37a96.112 96.112 0 0 1 4.404-4.769c4.935-6.879 11.661-15.57 19.529-23.958 13.257-14.186 29.839-27.357 45.917-29.811a2.5 2.5 0 1 0-.774-4.94c-18.133 2.893-35.149 16.84-48.79 31.332a218.783 218.783 0 0 0-8.463 9.593 579.851 579.851 0 0 1-11.988 22.406c.057.049.111.098.165.147z"/><path style="fill:#f3e400" d="M443.19 79.82a531.258 531.258 0 0 0 2.722-5.445C456.79 52.244 468.39 24.804 471.16 2.811a2.5 2.5 0 0 0-4.961-.621c-2.584 20.838-13.987 48.105-24.773 69.977a529.281 529.281 0 0 1-4.173 8.289 155.35 155.35 0 0 1-4.554 12.864 157.77 157.77 0 0 1-3.27 7.534c.637.441 1.229.903 1.772 1.373A576.329 576.329 0 0 0 443.19 79.82z"/><path style="fill:#a57c52" d="M432.7 93.32a155.35 155.35 0 0 0 4.554-12.864c.67-2.2 1.311-4.489 1.9-6.852 4.791-19.237 6.358-43.599-7.642-63.151a2.5 2.5 0 0 0-4.06 2.918l.001-.001c12.706 17.623 11.505 40.409 6.85 59.024-2.315 9.283-5.462 17.463-8.026 23.303-.066.152-.131.296-.197.445-.274.878-.544 1.704-.802 2.468a21.013 21.013 0 0 1 2.749 1.352c.246.143.493.292.738.448.229.146.448.295.666.446a159.045 159.045 0 0 0 3.269-7.536z"/><path style="fill:#49a94c" d="M490.19 76.942a2.499 2.499 0 0 0-2.425-2.572c-18.867-.546-34.096 7.95-44.529 16.443a93.857 93.857 0 0 0-7.468 6.792 95.628 95.628 0 0 0-4.404 4.769c.228.2.444.4.652.601 1.203 1.162 2.094 2.317 2.61 3.269 7.576-8.973 26.79-27.739 52.992-26.875a2.502 2.502 0 0 0 2.572-2.427z"/><path style="fill:#31a9dc" d="M426.08 96.141c1.611-5.141 3.428-12.109 4.42-19.853 1.013-7.982 1.157-16.795-.796-25.301-1.947-8.498-6.054-16.722-13.467-23.175a2.501 2.501 0 0 0-3.529.242 2.5 2.5 0 0 0 .245 3.527c6.499 5.672 10.095 12.807 11.878 20.525 2.674 11.563 1.086 24.374-1.246 34.246a118.231 118.231 0 0 1-3.216 11.162c1.11-.054 2.775.267 4.641.99l.269.105c.257-.765.527-1.59.801-2.468z"/><path style="fill:#fcc400" d="M434.63 106.24c-.517-.951-1.407-2.106-2.61-3.269a19.254 19.254 0 0 0-.652-.601c-.055-.049-.108-.098-.165-.147a21.567 21.567 0 0 0-2.438-1.819 21.361 21.361 0 0 0-.738-.448 21.187 21.187 0 0 0-2.749-1.352c-.09-.037-.18-.071-.269-.105-1.865-.723-3.53-1.044-4.641-.99-.665.033-1.136.195-1.323.49l-20.059 31.479c2.667.84 5.682 2.188 8.653 4.081 2.971 1.894 5.453 4.077 7.33 6.156l20.082-31.517c.226-.355.063-1.068-.421-1.958z"/></svg>