<svg xmlns="http://www.w3.org/2000/svg" xmlns:xlink="http://www.w3.org/1999/xlink" viewBox="0 0 663.99 804.05"><defs><filter id="e" color-interpolation-filters="sRGB"><feGaussianBlur stdDeviation="1"/></filter><filter id="d" height="1.24" width="1.24" color-interpolation-filters="sRGB" y="-.12" x="-.12"><feGaussianBlur stdDeviation="5"/></filter><filter id="b" color-interpolation-filters="sRGB"><feGaussianBlur stdDeviation="16.136"/></filter><filter id="m" color-interpolation-filters="sRGB"><feGaussianBlur stdDeviation="1.122"/></filter><filter id="l" height="1.16" width="1.238" color-interpolation-filters="sRGB" y="-.08" x="-.119"><feGaussianBlur stdDeviation="1.122"/></filter><filter id="k" color-interpolation-filters="sRGB"><feGaussianBlur stdDeviation="1.122"/></filter><filter id="j" height="1.029" width="1.269" color-interpolation-filters="sRGB" y="-.015" x="-.135"><feGaussianBlur stdDeviation="1.122"/></filter><filter id="i" height="1.029" width="1.269" color-interpolation-filters="sRGB" y="-.015" x="-.135"><feGaussianBlur stdDeviation="1.122"/></filter><filter id="h" height="1.029" width="1.269" color-interpolation-filters="sRGB" y="-.015" x="-.135"><feGaussianBlur stdDeviation="1.122"/></filter><filter id="g" color-interpolation-filters="sRGB"><feGaussianBlur stdDeviation="1.122"/></filter><filter id="s" color-interpolation-filters="sRGB" width="1.07" y="-.3" x="-.035" height="1.599"><feGaussianBlur stdDeviation=".725"/></filter><filter id="u" color-interpolation-filters="sRGB"><feGaussianBlur stdDeviation="2.982"/></filter><filter id="f" color-interpolation-filters="sRGB"><feGaussianBlur stdDeviation="8.065"/></filter><linearGradient id="a"><stop style="stop-color:#9927af" offset="0"/><stop style="stop-color:#fff" offset="1"/></linearGradient><linearGradient id="n" y2="692.35" spreadMethod="reflect" gradientUnits="userSpaceOnUse" x2="480.51" gradientTransform="translate(-148.53 -381.33)" y1="692.35" x1="320.49"><stop style="stop-color:#ffd543" offset="0"/><stop style="stop-color:#ffeca9" offset="1"/></linearGradient><linearGradient id="o" y2="625.57" gradientUnits="userSpaceOnUse" x2="491.21" y1="347" x1="250.93"><stop style="stop-color:#729fcf" offset="0"/><stop style="stop-color:#3465a4" offset="1"/></linearGradient><linearGradient id="p" y2="678.42" gradientUnits="userSpaceOnUse" x2="706.93" y1="366.99" x1="284.5"><stop style="stop-color:#fff" offset="0"/><stop style="stop-color:#fff;stop-opacity:0" offset="1"/></linearGradient><linearGradient id="q" y2="506.56" xlink:href="#a" gradientUnits="userSpaceOnUse" x2="371.73" gradientTransform="matrix(.92714 0 0 1.0018 32.09 -1.002)" y1="581.51" x1="382.75"/><linearGradient id="r" y2="509.38" xlink:href="#a" gradientUnits="userSpaceOnUse" x2="425.35" gradientTransform="matrix(.92714 0 0 1.0018 28.523 -1.002)" y1="580.09" x1="415.16"/><linearGradient id="t" y2="615.1" gradientUnits="userSpaceOnUse" x2="410.42" y1="615.53" x1="399.93"><stop style="stop-color:#fff" offset="0"/><stop style="stop-color:#fff;stop-opacity:0" offset="1"/></linearGradient><marker id="c" refY="0" refX="0" style="overflow:visible" orient="auto"><path style="stroke:#000;stroke-width:1pt;fill-rule:evenodd" transform="matrix(-.8 0 0 -.8 -10 0)" d="m0 0 5-5-17.5 5L5 5 0 0z"/></marker></defs><g transform="translate(39.363 42.322)"><path style="filter:url(#b);stroke:#1e1e1e;stroke-width:.5;fill:#1e1e1e" d="m.355 336.34 385.41-103.26 122.47 70.71 77.39 288.81a.998.998 0 0 1-.708 1.225l-481.03 128.89a.998.998 0 0 1-1.224-.707L-.347 337.578a.998.998 0 0 1 .707-1.225z"/><path d="m8.604 325.09 385.41-103.27 122.47 70.71 77.39 288.81a.998.998 0 0 1-.707 1.225l-481.03 128.9a.998.998 0 0 1-1.224-.707L7.903 326.318a.998.998 0 0 1 .707-1.225z" style="stroke:#323232;stroke-width:.5;fill:#fff"/><path d="m68.876 360.7 77.644 289.78 386.37-103.53" style="marker-end:url(#c);marker-start:url(#Arrow1Lstart);stroke:#000;stroke-width:2;fill:none"/><rect ry="1" style="stroke:#323232;stroke-width:2;fill:#0f0" rx="1" transform="rotate(-15)" height="150" width="75" y="516.24" x="23.173"/><rect ry="1" style="stroke:#323232;stroke-width:2;fill:#00f" rx="1" transform="rotate(-15)" height="250" width="75" y="416.24" x="123.17"/><rect ry="1" style="stroke:#323232;stroke-width:2;fill:red" rx="1" transform="rotate(-15)" height="200" width="77.857" y="466.24" x="220.32"/><path d="m68.876 360.7 386.37-103.53 77.64 289.78M81.817 409l386.37-103.53M94.758 457.29l386.37-103.52M107.7 505.59l386.37-103.53M120.64 553.89l386.37-103.53M133.58 602.18l386.37-103.53" style="stroke:#646464;stroke-dasharray:2.00000001,.5;stroke-width:.5;fill:none"/><path style="filter:url(#d);stroke:#0a0a0a;stroke-width:.5;fill:#0a0a0a" d="M450 359.11c17.976-28.571 73.81-26.786 100 0l-100-100c27.331 26.985 18.087 71.379 0 100z" transform="rotate(-15 306 449.72)"/><path style="filter:url(#e);stroke:#323232;stroke-width:.5;fill:#fff" d="M450 352.36c17.976-28.571 73.81-26.786 100 0l-100-100c27.331 26.985 18.087 71.379 0 100z" transform="rotate(-15 306 449.72)"/></g><path style="opacity:.93;filter:url(#f);fill:#4d4d4d" d="M557.76 185.41a9.99 9.99 0 0 0-8.656 5.469l-1.25 2.437-4.063 7.97-9.656 18.937c-.178.35.062.8.5 1.063a1 1 0 0 0-1.281.468l-30.875 60.594a.997.997 0 0 0 .437 1.344.997.997 0 0 0-1.343.438L418.51 447.19a.997.997 0 0 0 .437 1.343l-.906-.437-9.219 58.562.281.156 20.125 10.125 42.281-41.625-.875-.469c.871-.507 19.853-36.753 42.875-81.938 23.265-45.66 41.587-82.623 41.094-82.875a.997.997 0 0 0 1.344-.437l30.875-60.594a.997.997 0 0 0-.437-1.344c.493.252 1.03.184 1.218-.187l9.657-18.938 4.062-7.97 1.25-2.468a9.966 9.966 0 0 0-4.375-13.438L562.542 186.5a9.915 9.915 0 0 0-4.781-1.094zM409.1 506.82l-5.188 35.062 25.345-24.812-20.156-10.25zm109.84-214.94 1.781.906c-.493-.251-19.61 36.31-42.875 81.97s-41.587 82.622-41.094 82.874l-1.781-.906a.997.997 0 0 0 1.344-.437l41.53-81.531 41.532-81.531a.997.997 0 0 0-.438-1.344zm17.844 9.063 1.781.906c-.493-.252-19.642 36.309-42.906 81.969-23.265 45.66-41.587 82.623-41.094 82.875l-1.781-.906c.494.251 19.61-36.31 42.875-81.97s41.619-82.622 41.125-82.874z" transform="translate(39.363 42.322)"/><g transform="rotate(27 205.749 779.858)"><rect style="filter:url(#g);fill:url(#linearGradient4888)" rx="1" ry="1" height="70" width="60" y="132.36" x="285"/><rect style="filter:url(#h);stroke:#fafa00;fill:url(#linearGradient4890)" rx="1" ry="1" height="185" width="20" y="202.36" x="285"/><rect style="filter:url(#i);stroke:#fafa00;fill:url(#linearGradient4892)" rx="1" ry="92.5" height="185" width="20" y="202.36" x="305"/><rect style="filter:url(#j);stroke:#fafa1e;fill:url(#linearGradient4894)" rx="1" ry="92.5" height="185" width="20" y="202.36" x="325"/><path style="filter:url(#k);fill:url(#linearGradient4896)" d="M295 88.688c-5.54 0-10 4.46-10 10v32.938c0 .416.446.75 1 .75h58c.554 0 1-.334 1-.75V98.687c0-5.54-4.46-10-10-10h-40z"/><path style="filter:url(#l);fill:#d40000" d="M303.69 443.75 315 477.36l11.31-33.61z"/><path d="m285 387.36 18.383 56.383 22.855-.098 18.76-56.28z" style="filter:url(#m);fill:url(#linearGradient4898)"/></g><g transform="translate(-46.351 79.465)"><rect style="opacity:.38326;fill:#000" ry="7.205" height="28.302" width="40" y="355.99" x="231.47"/><path style="stroke:#d59600;fill:none" d="M181.47 271.01c25.65-17.421 110.39-11.895 140 0 2.74-.222 19.42 10.109 0 20.02 7.06 7.205 17.315 16.126 0 30 19.52 10 7.227 30 0 30-27.192 27.192-112.81 27.192-140 0-4.416.349-18.968-10.169 0-20-14.265-10.586-10.977-21.73 0-30-18.046-9.026-5.008-29.753 0-30.02z"/><path style="fill:url(#n)" d="M181.47 271.01c27.192-17.138 112.81-10.901 140 0 2.74-.222 19.42 10.109 0 20.02 7.06 7.205 17.315 16.126 0 30 19.52 10 7.227 30 0 30-27.192 27.192-112.81 27.192-140 0-4.416.349-18.968-10.169 0-20-14.265-10.586-10.977-21.73 0-30-18.046-9.026-5.008-29.753 0-30.02z"/><path style="opacity:.61674;fill:#d59600" d="M183.47 302.04c11.624 11.224 88.75 36 134.75 19.5-65.334 5.652-114.37-18.724-134.75-19.5z"/><path style="opacity:.59912;fill:#d59600" d="M183.85 329.28c11.624 11.224 88.75 36 134.75 19.5-65.334 5.652-114.37-18.724-134.75-19.5z"/><path d="M550 452.36c0 43.687-18.676 83.012-48.48 110.43-9.549 8.783-20.24 46.004-31.824 90.209-51.877 13.631-90.826 17.202-139.33-.73-11.47-43.77-22.05-80.49-31.52-89.14-30.02-27.43-48.85-66.9-48.85-110.77 0-82.842 67.157-150 150-150s150 67.158 150 150z" style="opacity:.62115;fill:#ffc803" transform="translate(-148.53 -381.33)"/><path d="M550 452.36c0 43.687-18.676 83.012-48.48 110.43-9.549 8.783-20.24 46.004-31.824 90.209-51.877 13.631-90.826 17.202-139.33-.73-11.47-43.77-22.05-80.49-31.52-89.14-30.02-27.43-48.85-66.9-48.85-110.77 0-82.842 67.157-150 150-150s150 67.158 150 150z" style="stroke:url(#o);fill:url(#radialGradient6430)" transform="translate(-148.53 -381.33)"/><path style="stroke:url(#p);fill:none" d="M400 306.66c-80.53 0-145.72 65.189-145.72 145.72 0 42.643 18.269 80.943 47.438 107.59 6.375 5.825 10.889 17.293 16.219 33.219 5.138 15.353 10.484 34.749 16 55.75 45.882 16.459 82.745 13.315 132.28.5 5.557-21.133 10.922-40.699 16.094-56.188 5.382-16.118 9.907-27.733 16.312-33.625 28.959-26.637 47.094-64.782 47.094-107.25 0-80.53-65.189-145.72-145.72-145.72z" transform="translate(-148.53 -381.33)"/><path d="m376.93 503.3 11.145 78.634" style="stroke:url(#q);stroke-linecap:round;stroke-width:3.8551;fill:none" transform="translate(-148.53 -381.33)"/><path style="stroke:url(#r);stroke-linecap:round;stroke-width:3.855;fill:none" d="m411.93 581.93 11.145-78.634" transform="translate(-148.53 -381.33)"/><path d="M375 503.57c5.775.778 8.573 3.39 14.348-3.807 4.492 4.597 7.636 10.362 19.006 0 5.893 7.506 10.753 4.99 16.646 4.493" style="filter:url(#s);stroke:#fff;stroke-linecap:round;stroke-width:5;fill:none" transform="translate(-148.53 -381.33)"/><path d="M380 658.67v-75.421c20.348-5.916 21.655-6.07 40 0v75.325" style="opacity:.54185;stroke-linejoin:round;stroke:#d0bfac;stroke-linecap:round;stroke-width:5;fill:url(#t)" transform="translate(-148.53 -381.33)"/><path style="opacity:.372;filter:url(#u);fill-opacity:.57068;fill:#fff" d="M478.28 413.03c0 35.04-37.692 63.446-84.187 63.446s-84.187-28.406-84.187-63.446 37.692-63.446 84.187-63.446 84.187 28.406 84.187 63.446z" transform="rotate(135 379.134 185.593)"/></g></svg>