<svg xmlns="http://www.w3.org/2000/svg" xmlns:xlink="http://www.w3.org/1999/xlink" viewBox="0 0 48 48"><defs><linearGradient id="m" y2="7.842" xlink:href="#a" gradientUnits="userSpaceOnUse" y1="16.355" gradientTransform="matrix(1.6815 0 0 .91738 933.17 192.98)" x2="21.445" x1="21.106"/><linearGradient id="i" y2="7.842" xlink:href="#a" gradientUnits="userSpaceOnUse" y1="16.355" gradientTransform="matrix(1.8642 0 0 .89795 -935.09 1035.6)" x2="21.445" x1="21.106"/><linearGradient id="o" y2="559.47" gradientUnits="userSpaceOnUse" y1="568.05" x2="428.64" x1="437.23"><stop stop-color="#1b21ed" offset="0"/><stop stop-color="#1b1bed" stop-opacity=".104" offset="1"/></linearGradient><linearGradient id="n" y2="558.82" xlink:href="#a" gradientUnits="userSpaceOnUse" x2="458.58" y1="565.56" x1="462.67"/><linearGradient id="k" y2="7.842" xlink:href="#a" gradientUnits="userSpaceOnUse" y1="16.355" gradientTransform="matrix(1.6815 0 0 .91738 -825.97 836.28)" x2="21.445" x1="21.106"/><linearGradient id="a"><stop stop-color="#00f" offset="0"/><stop stop-color="#00f" stop-opacity=".4" offset="1"/></linearGradient><linearGradient id="c"><stop stop-color="#0a0eed" offset="0"/><stop stop-color="#0a0eed" stop-opacity="0" offset="1"/></linearGradient><linearGradient id="b"><stop stop-color="#fff" offset="0"/><stop stop-color="#fff" stop-opacity="0" offset="1"/></linearGradient><linearGradient id="t" y2="21.042" xlink:href="#b" gradientUnits="userSpaceOnUse" x2="-22.252" y1="30.057" x1="-25.176"/><linearGradient id="q" y2="22.662" xlink:href="#b" gradientUnits="userSpaceOnUse" x2="-22.114" y1="30.057" x1="-25.176"/><linearGradient id="r" y2="22.662" xlink:href="#b" gradientUnits="userSpaceOnUse" x2="-22.114" y1="28.338" x1="-22.823"/><linearGradient id="s" y2="21.336" xlink:href="#b" gradientUnits="userSpaceOnUse" x2="-21.962" y1="15.649" x1="-21.659"/><radialGradient id="l" xlink:href="#c" gradientUnits="userSpaceOnUse" cy="73.508" cx="1011.3" gradientTransform="matrix(1 0 0 .30425 -46.564 182.66)" r="12.685"/><radialGradient id="j" xlink:href="#c" gradientUnits="userSpaceOnUse" cy="848.33" cx="-794.37" gradientTransform="matrix(1 0 0 .30425 0 590.22)" r="12.685"/><radialGradient id="h" xlink:href="#c" gradientUnits="userSpaceOnUse" cy="1047.4" cx="-900.06" gradientTransform="matrix(1 0 0 .27042 0 764.15)" r="14.008"/><radialGradient id="d" gradientUnits="userSpaceOnUse" cy="63.965" cx="15.116" gradientTransform="scale(1.644 .60828)" r="12.289"><stop offset="0"/><stop stop-opacity="0" offset="1"/></radialGradient><radialGradient id="f" xlink:href="#b" gradientUnits="userSpaceOnUse" cy="12.493" cx="12.071" r="6.718"/><radialGradient id="g" gradientUnits="userSpaceOnUse" cy="12.142" cx="15.601" gradientTransform="matrix(.99999 0 0 1 .725 1003)" r="43.527"><stop stop-color="#fff" offset="0"/><stop stop-color="#fff" stop-opacity=".165" offset="1"/></radialGradient><radialGradient id="e" gradientUnits="userSpaceOnUse" cy="15.716" cx="18.248" gradientTransform="matrix(.99999 0 0 1 .725 1003)" r="29.993"><stop stop-color="#d3e9ff" offset="0"/><stop stop-color="#d3e9ff" offset=".155"/><stop stop-color="#4074ae" offset=".75"/><stop stop-color="#36486c" offset="1"/></radialGradient><filter id="p" y="-.134" width="1.285" height="1.268" x="-.143"><feGaussianBlur stdDeviation=".483"/></filter></defs><path d="M45.053 38.909a20.203 7.475 0 1 1-40.406 0 20.203 7.475 0 1 1 40.406 0z" fill="url(#d)" transform="matrix(1 0 0 1.2432 .725 -11.67)"/><path d="M44.685 1026.5c0 10.71-8.682 19.392-19.39 19.392-10.709 0-19.391-8.682-19.391-19.392 0-10.709 8.682-19.39 19.391-19.39 10.708 0 19.39 8.681 19.39 19.39z" stroke="#39396c" fill="url(#e)" transform="translate(0 -1004.4)"/><g fill-opacity=".713" fill="#204a87"><path d="m44.14 19.149-.535.606c-.328-.387-.697-.712-1.07-1.051l-.822.12-.75-.848v1.05l.643.486.428.485.571-.647.43.809v.808l-.645.727-1.178.809-.892.89-.572-.649.286-.727-.57-.646-.965-2.061-.82-.929-.216.242.322 1.172.607.687c.346 1 .689 1.955 1.143 2.91.705 0 1.37-.074 2.07-.162v.566l-.856 2.101-.786.889-.643 1.375v2.263l.215.89-.357.403-.786.485-.821.687.679.768-.929.81.179.523-1.393 1.577h-.928l-.786.486h-.5v-.647l-.214-1.295a126.38 126.38 0 0 0-.856-2.423c0-.595.035-1.184.07-1.779l.359-.808-.501-.97.036-1.334-.679-.768.34-1.11-.553-.628h-.965l-.321-.363-.964.607-.393-.446-.893.768-1.82-2.061-.715-1.698.643-.969-.357-.404.785-1.86a67.248 67.248 0 0 1 2-2.344l1.214-.323 1.356-.161.929.243 1.321 1.332.464-.525.642-.08 1.215.404h.928l.643-.567.286-.403-.644-.404-1.071-.08c-.298-.413-.574-.847-.927-1.213l-.358.16-.143 1.052-.643-.727-.142-.81-.713-.564h-.287l.714.808-.286.727-.57.161.357-.727-.644-.322-.57-.647-1.073.242-.142.322-.642.405-.357.89-.892.444-.394-.444h-.428v-1.456l.929-.485h.714l-.144-.565-.57-.566.963-.203.536-.605.427-.728h.787l-.215-.565.5-.323v.646l1.071.242 1.071-.888.072-.405.928-.646c-.336.041-.672.072-1 .161V8.6l.357-.808h-.357l-.784.727-.215.405.215.566-.358.969-.571-.323-.499-.565-.787.565-.285-1.293 1.356-.889V7.47l.858-.566 1.356-.324.929.324 1.713.323-.428.485h-.928l.928.97.714-.808.217-.355s2.738 2.454 4.303 5.138c1.564 2.685 2.3 5.85 2.3 6.493zM26.457 7.873l-.072.485.5.323.856-.565-.428-.485-.571.324-.285-.082m.785-3.313-1.857-.728-2.141.243-2.643.727-.5.485 1.643 1.131v.647l-.643.646.857 1.699.57-.324.716-1.131a24.577 24.577 0 0 0 3.14-1.213l.858-2.182m1.928 6.79-.285-.728-.5.162.143.888.643-.322"/><path d="m29.456 11.187-.143.97.786-.162.57-.565-.5-.485a14.575 14.575 0 0 0-.571-1.294h-.428v.485l.285.323v.727M18.887 26.544l-.571-1.132-1.071-.242-.572-1.535-1.428.161-1.213-.888-1.286 1.13v.18c-.39-.113-.868-.128-1.214-.341l-.286-.808v-.89l-.856.081.214-1.697h-.5l-.5.647-.5.241-.714-.403-.072-.889.143-.97 1.072-.808h.856l.143-.485 1.07.242.787.97.143-1.617 1.357-1.13.5-1.214.999-.403.571-.808 1.285-.244.644-.969h-1.929l1.214-.566h.857l1.214-.405.143-.483-.429-.405-.5-.162.143-.485-.357-.727-.857.323.143-.647-1-.566-.785 1.374.071.485-.785.324-.5 1.05-.214-.97-1.357-.565-.215-.727 1.786-1.052.785-.727.072-.889-.428-.242-.572-.082-.357.89s-.597.117-.75.155C11.32 9.43 7.358 13.33 6.437 20.695c.037.17.667 1.16.667 1.16l1.5.89 1.5.404.643.809.999.727.571-.08.428.192v.13l-.57 1.536-.43.647.144.324-.357 1.21 1.285 2.345 1.285 1.132.572.808-.072 1.698.429.969-.429 1.86s-.033-.012.021.174c.056.186 2.288 1.425 2.43 1.32l.263-.202-.143-.402.571-.567.215-.566.928-.324.714-1.778-.214-.484.499-.727 1.071-.244.572-1.293-.143-1.615.857-1.213.143-1.213c-1.173-.58-2.335-1.179-3.5-1.777M17.317 8.196l.713.485h.572v-.565l-.714-.324-.571.404"/><path d="m15.46 7.55-.357.889h.714l.357-.808c.309-.218.615-.437.929-.647l.714.243 1.428.97.714-.647-.786-.323-.358-.728-1.356-.161-.072-.405-.642.162-.285.566-.358-.728-.142.324.071.808-.571.485m2.57-2.021.357-.323.715-.162c.489-.238.98-.398 1.5-.566l-.286-.485-.922.133-.435.434-.718.104-.639.3-.31.15-.19.254.928.16m1.214 7.679.429-.646-.643-.485.214 1.131"/></g><path style="color:#000" d="M18.789 12.493a6.718 6.718 0 1 1-13.435 0 6.718 6.718 0 1 1 13.435 0z" fill-rule="evenodd" transform="scale(-1 1) rotate(36.266 -29.34 -66.875)" fill="url(#f)"/><path opacity=".396" d="M43.7 1026.5c0 10.166-8.241 18.407-18.406 18.407s-18.406-8.241-18.406-18.407c0-10.165 8.24-18.406 18.406-18.406 10.164 0 18.406 8.24 18.406 18.406z" stroke="url(#g)" fill="none" transform="translate(0 -1004.4)"/><path style="color:#000" d="M18.789 12.493a6.718 6.718 0 1 1-13.435 0 6.718 6.718 0 1 1 13.435 0z" fill-rule="evenodd" transform="matrix(-1.0458 .76725 .76725 1.0458 38.3 11.9)" fill="url(#f)"/><path style="color:#000" d="M18.789 12.493a6.718 6.718 0 1 1-13.435 0 6.718 6.718 0 1 1 13.435 0z" fill-rule="evenodd" transform="scale(-1 1) rotate(36.266 -19.372 -18.373)" fill="url(#f)"/><path style="color:#000" d="M18.789 12.493a6.718 6.718 0 1 1-13.435 0 6.718 6.718 0 1 1 13.435 0z" fill-rule="evenodd" transform="matrix(-.87023 .63857 .63846 .87038 27.56 -7.21)" fill="url(#f)"/><path stroke-opacity=".853" fill-rule="evenodd" transform="matrix(-.18192 -.07747 -.15186 .12415 6.351 -172.93)" stroke="url(#h)" fill="url(#i)" d="M-913.57 1044.1h27.017v6.576h-27.017z"/><path stroke-opacity=".853" fill-rule="evenodd" transform="matrix(.15797 -.11677 .15293 .1229 6.351 -172.93)" stroke="url(#j)" fill="url(#k)" d="M-806.56 844.97h24.369v6.719h-24.369z"/><path stroke-opacity=".853" fill-rule="evenodd" transform="matrix(.04554 .18735 -.1783 .085 6.351 -172.93)" stroke="url(#l)" fill="url(#m)" d="M952.58 201.66h24.369v6.719H952.58z"/><path d="M471.44 568.09a8.768 8.768 0 1 1-17.536 0 8.768 8.768 0 0 1 17.536 0z" stroke-opacity=".938" transform="matrix(.19265 0 0 .18658 -76.288 -83.866)" stroke="url(#n)" fill="#fffffc"/><path d="M445.31 568.05a8.087 8.087 0 1 1-16.174 0 8.087 8.087 0 0 1 16.174 0z" fill="url(#o)" transform="matrix(.19873 0 0 .19247 -74.046 -87.2)" fill-rule="evenodd"/><path filter="url(#p)" d="m28.373 1014.7.762-3.304 2.796-.762.508-3.558h3.05l-.254-1.017-4.066.254-2.034 1.525-1.525 1.78-.254 3.811 1.017 1.271z" fill="#fffff3" fill-opacity=".813" transform="matrix(.19873 0 0 .19247 6.126 -172.639)"/><path d="M471.44 568.09a8.768 8.768 0 1 1-17.536 0 8.768 8.768 0 0 1 17.536 0z" stroke-opacity=".938" transform="matrix(.19265 0 0 .18658 -80.625 -80.356)" stroke="url(#n)" fill="#fffffc"/><path d="M445.31 568.05a8.087 8.087 0 1 1-16.174 0 8.087 8.087 0 0 1 16.174 0z" fill="url(#o)" transform="matrix(.19873 0 0 .19247 -78.384 -83.69)" fill-rule="evenodd"/><path filter="url(#p)" d="m28.373 1014.7.762-3.304 2.796-.762.508-3.558h3.05l-.254-1.017-4.066.254-2.034 1.525-1.525 1.78-.254 3.811 1.017 1.271z" fill="#fffff3" fill-opacity=".813" transform="matrix(.19873 0 0 .19247 1.788 -169.13)"/><path d="M471.44 568.09a8.768 8.768 0 1 1-17.536 0 8.768 8.768 0 0 1 17.536 0z" stroke-opacity=".938" transform="matrix(.19265 0 0 .18658 -75.349 -78.228)" stroke="url(#n)" fill="#fffffc"/><path d="M445.31 568.05a8.087 8.087 0 1 1-16.174 0 8.087 8.087 0 0 1 16.174 0z" fill="url(#o)" transform="matrix(.19873 0 0 .19247 -73.107 -81.562)" fill-rule="evenodd"/><path filter="url(#p)" d="m28.373 1014.7.762-3.304 2.796-.762.508-3.558h3.05l-.254-1.017-4.066.254-2.034 1.525-1.525 1.78-.254 3.811 1.017 1.271z" fill="#fffff3" fill-opacity=".813" transform="matrix(.19873 0 0 .19247 7.065 -167.001)"/><path stroke-linejoin="round" style="color:#000" d="M-2.828 21.042a15.733 9.458 0 1 1-31.466 0 15.733 9.458 0 1 1 31.466 0z" transform="matrix(.93933 -.87909 .68331 .73013 33.039 -5.85)" stroke="url(#q)" stroke-linecap="round" stroke-width=".882" fill="none"/><path stroke-opacity=".853" fill-rule="evenodd" transform="matrix(-.19541 -.0864 -.16313 .13846 37.667 -199.29)" stroke="url(#h)" fill="url(#i)" d="M-913.57 1044.1h27.017v6.576h-27.017z"/><path stroke-opacity=".853" fill-rule="evenodd" transform="matrix(.1697 -.13024 .16428 .13708 37.667 -199.29)" stroke="url(#j)" fill="url(#k)" d="M-806.56 844.97h24.369v6.719h-24.369z"/><path stroke-opacity=".853" fill-rule="evenodd" transform="matrix(.04892 .20895 -.19152 .0948 37.667 -199.29)" stroke="url(#l)" fill="url(#m)" d="M952.58 201.66h24.369v6.719H952.58z"/><path d="M471.44 568.09a8.768 8.768 0 1 1-17.536 0 8.768 8.768 0 0 1 17.536 0z" stroke-opacity=".938" transform="matrix(.20694 0 0 .2081 -51.101 -99.958)" stroke="url(#n)" fill="#fffffc"/><path d="M445.31 568.05a8.087 8.087 0 1 1-16.174 0 8.087 8.087 0 0 1 16.174 0z" fill="url(#o)" transform="matrix(.21347 0 0 .21466 -48.693 -103.676)" fill-rule="evenodd"/><path filter="url(#p)" d="m28.373 1014.7.762-3.304 2.796-.762.508-3.558h3.05l-.254-1.017-4.066.254-2.034 1.525-1.525 1.78-.254 3.811 1.017 1.271z" fill="#fffff3" fill-opacity=".813" transform="matrix(.21347 0 0 .21466 37.425 -198.965)"/><path d="M471.44 568.09a8.768 8.768 0 1 1-17.536 0 8.768 8.768 0 0 1 17.536 0z" stroke-opacity=".938" transform="matrix(.20694 0 0 .2081 -55.76 -96.043)" stroke="url(#n)" fill="#fffffc"/><path d="M445.31 568.05a8.087 8.087 0 1 1-16.174 0 8.087 8.087 0 0 1 16.174 0z" fill="url(#o)" transform="matrix(.21347 0 0 .21466 -53.353 -99.761)" fill-rule="evenodd"/><path filter="url(#p)" d="m28.373 1014.7.762-3.304 2.796-.762.508-3.558h3.05l-.254-1.017-4.066.254-2.034 1.525-1.525 1.78-.254 3.811 1.017 1.271z" fill="#fffff3" fill-opacity=".813" transform="matrix(.21347 0 0 .21466 32.766 -195.05)"/><path d="M471.44 568.09a8.768 8.768 0 1 1-17.536 0 8.768 8.768 0 0 1 17.536 0z" stroke-opacity=".938" transform="matrix(.20694 0 0 .2081 -50.093 -93.67)" stroke="url(#n)" fill="#fffffc"/><path d="M445.31 568.05a8.087 8.087 0 1 1-16.174 0 8.087 8.087 0 0 1 16.174 0z" fill="url(#o)" transform="matrix(.21347 0 0 .21466 -47.685 -97.388)" fill-rule="evenodd"/><path filter="url(#p)" d="m28.373 1014.7.762-3.304 2.796-.762.508-3.558h3.05l-.254-1.017-4.066.254-2.034 1.525-1.525 1.78-.254 3.811 1.017 1.271z" fill="#fffff3" fill-opacity=".813" transform="matrix(.21347 0 0 .21466 38.433 -192.678)"/><path stroke-opacity=".853" fill-rule="evenodd" transform="matrix(-.19541 -.0864 -.16313 .13846 28.618 -187.35)" stroke="url(#h)" fill="url(#i)" d="M-913.57 1044.1h27.017v6.576h-27.017z"/><path stroke-opacity=".853" fill-rule="evenodd" transform="matrix(.1697 -.13024 .16428 .13708 28.618 -187.35)" stroke="url(#j)" fill="url(#k)" d="M-806.56 844.97h24.369v6.719h-24.369z"/><path stroke-opacity=".853" fill-rule="evenodd" transform="matrix(.04892 .20895 -.19152 .0948 28.618 -187.35)" stroke="url(#l)" fill="url(#m)" d="M952.58 201.66h24.369v6.719H952.58z"/><path d="M471.44 568.09a8.768 8.768 0 1 1-17.536 0 8.768 8.768 0 0 1 17.536 0z" stroke-opacity=".938" transform="matrix(.20694 0 0 .2081 -60.15 -88.018)" stroke="url(#n)" fill="#fffffc"/><path d="M445.31 568.05a8.087 8.087 0 1 1-16.174 0 8.087 8.087 0 0 1 16.174 0z" fill="url(#o)" transform="matrix(.21347 0 0 .21466 -57.742 -91.736)" fill-rule="evenodd"/><path filter="url(#p)" d="m28.373 1014.7.762-3.304 2.796-.762.508-3.558h3.05l-.254-1.017-4.066.254-2.034 1.525-1.525 1.78-.254 3.811 1.017 1.271z" fill="#fffff3" fill-opacity=".813" transform="matrix(.21347 0 0 .21466 28.376 -187.025)"/><path d="M471.44 568.09a8.768 8.768 0 1 1-17.536 0 8.768 8.768 0 0 1 17.536 0z" stroke-opacity=".938" transform="matrix(.20694 0 0 .2081 -64.81 -84.103)" stroke="url(#n)" fill="#fffffc"/><path d="M445.31 568.05a8.087 8.087 0 1 1-16.174 0 8.087 8.087 0 0 1 16.174 0z" fill="url(#o)" transform="matrix(.21347 0 0 .21466 -62.402 -87.821)" fill-rule="evenodd"/><path filter="url(#p)" d="m28.373 1014.7.762-3.304 2.796-.762.508-3.558h3.05l-.254-1.017-4.066.254-2.034 1.525-1.525 1.78-.254 3.811 1.017 1.271z" fill="#fffff3" fill-opacity=".813" transform="matrix(.21347 0 0 .21466 23.717 -183.11)"/><path d="M471.44 568.09a8.768 8.768 0 1 1-17.536 0 8.768 8.768 0 0 1 17.536 0z" stroke-opacity=".938" transform="matrix(.20694 0 0 .2081 -59.142 -81.73)" stroke="url(#n)" fill="#fffffc"/><path d="M445.31 568.05a8.087 8.087 0 1 1-16.174 0 8.087 8.087 0 0 1 16.174 0z" fill="url(#o)" transform="matrix(.21347 0 0 .21466 -56.734 -85.448)" fill-rule="evenodd"/><path filter="url(#p)" d="m28.373 1014.7.762-3.304 2.796-.762.508-3.558h3.05l-.254-1.017-4.066.254-2.034 1.525-1.525 1.78-.254 3.811 1.017 1.271z" fill="#fffff3" fill-opacity=".813" transform="matrix(.21347 0 0 .21466 29.384 -180.738)"/><path stroke-linejoin="round" style="color:#000" d="M-2.828 21.042a15.733 9.458 0 1 1-31.466 0 15.733 9.458 0 1 1 31.466 0z" transform="matrix(-1.2803 -.12616 .09806 -.99518 -1.68 39.1)" stroke="url(#r)" stroke-linecap="round" stroke-width=".882" fill="none"/><path stroke-opacity=".853" fill-rule="evenodd" transform="matrix(-.19541 -.0864 -.16313 .13846 19.962 -209.91)" stroke="url(#h)" fill="url(#i)" d="M-913.57 1044.1h27.017v6.576h-27.017z"/><path stroke-opacity=".853" fill-rule="evenodd" transform="matrix(.1697 -.13024 .16428 .13708 19.962 -209.91)" stroke="url(#j)" fill="url(#k)" d="M-806.56 844.97h24.369v6.719h-24.369z"/><path stroke-opacity=".853" fill-rule="evenodd" transform="matrix(.04892 .20895 -.19152 .0948 19.962 -209.91)" stroke="url(#l)" fill="url(#m)" d="M952.58 201.66h24.369v6.719H952.58z"/><path d="M471.44 568.09a8.768 8.768 0 1 1-17.536 0 8.768 8.768 0 0 1 17.536 0z" stroke-opacity=".938" transform="matrix(.20694 0 0 .2081 -68.806 -110.578)" stroke="url(#n)" fill="#fffffc"/><path d="M445.31 568.05a8.087 8.087 0 1 1-16.174 0 8.087 8.087 0 0 1 16.174 0z" fill="url(#o)" transform="matrix(.21347 0 0 .21466 -66.398 -114.296)" fill-rule="evenodd"/><path filter="url(#p)" d="m28.373 1014.7.762-3.304 2.796-.762.508-3.558h3.05l-.254-1.017-4.066.254-2.034 1.525-1.525 1.78-.254 3.811 1.017 1.271z" fill="#fffff3" fill-opacity=".813" transform="matrix(.21347 0 0 .21466 19.72 -209.585)"/><path d="M471.44 568.09a8.768 8.768 0 1 1-17.536 0 8.768 8.768 0 0 1 17.536 0z" stroke-opacity=".938" transform="matrix(.20694 0 0 .2081 -73.465 -106.663)" stroke="url(#n)" fill="#fffffc"/><path d="M445.31 568.05a8.087 8.087 0 1 1-16.174 0 8.087 8.087 0 0 1 16.174 0z" fill="url(#o)" transform="matrix(.21347 0 0 .21466 -71.058 -110.381)" fill-rule="evenodd"/><path filter="url(#p)" d="m28.373 1014.7.762-3.304 2.796-.762.508-3.558h3.05l-.254-1.017-4.066.254-2.034 1.525-1.525 1.78-.254 3.811 1.017 1.271z" fill="#fffff3" fill-opacity=".813" transform="matrix(.21347 0 0 .21466 15.06 -205.67)"/><path d="M471.44 568.09a8.768 8.768 0 1 1-17.536 0 8.768 8.768 0 0 1 17.536 0z" stroke-opacity=".938" transform="matrix(.20694 0 0 .2081 -67.798 -104.29)" stroke="url(#n)" fill="#fffffc"/><path d="M445.31 568.05a8.087 8.087 0 1 1-16.174 0 8.087 8.087 0 0 1 16.174 0z" fill="url(#o)" transform="matrix(.21347 0 0 .21466 -65.39 -108.008)" fill-rule="evenodd"/><path filter="url(#p)" d="m28.373 1014.7.762-3.304 2.796-.762.508-3.558h3.05l-.254-1.017-4.066.254-2.034 1.525-1.525 1.78-.254 3.811 1.017 1.271z" fill="#fffff3" fill-opacity=".813" transform="matrix(.21347 0 0 .21466 20.728 -203.298)"/><path stroke-linejoin="round" style="color:#000" d="M-2.828 21.042a15.733 9.458 0 1 1-31.466 0 15.733 9.458 0 1 1 31.466 0z" transform="matrix(.91787 -.85898 .6677 .71343 28.358 -8.31)" stroke="url(#s)" stroke-linecap="round" stroke-width=".902" fill="none"/><path stroke-linejoin="round" style="color:#000" d="M-2.828 21.042a15.733 9.458 0 1 1-31.466 0 15.733 9.458 0 1 1 31.466 0z" transform="matrix(1.131 .6131 -.47656 .87914 54.816 14.6)" stroke="url(#t)" stroke-linecap="round" stroke-width=".882" fill="none"/></svg>